<svg id="Capa_1" enable-background="new 0 0 512 512" height="512" viewBox="0 0 512 512" width="512" xmlns="http://www.w3.org/2000/svg"><g><path d="m467 90h-174.789l64.395-64.395c5.859-5.859 5.859-15.352 0-21.211s-15.352-5.859-21.211 0l-79.395 79.395-79.395-79.394c-5.859-5.859-15.352-5.859-21.211 0s-5.859 15.352 0 21.211l64.395 64.394h-174.789c-24.814 0-45 21.186-45 46v301c0 24.814 20.186 45 45 45h45v15c0 8.291 6.709 15 15 15s15-6.709 15-15v-15h271v15c0 8.291 6.709 15 15 15s15-6.709 15-15v-15h46c24.814 0 45-20.186 45-45v-301c0-24.814-20.186-46-45-46zm-76 317c0 8.291-6.709 15-15 15h-301c-8.291 0-15-6.709-15-15v-241c0-8.291 6.709-15 15-15h301c8.291 0 15 6.709 15 15zm60-30c0 8.291-6.709 15-15 15s-15-6.709-15-15v-61c0-8.291 6.709-15 15-15s15 6.709 15 15zm-15-106c-8.284 0-15-6.716-15-15s6.716-15 15-15 15 6.716 15 15-6.716 15-15 15zm0-60c-8.284 0-15-6.716-15-15s6.716-15 15-15 15 6.716 15 15-6.716 15-15 15z"/><path d="m90 181h271v211h-271z"/></g></svg>